<svg id="visual" viewBox="0 0 960 540" width="960" height="540" xmlns="http://www.w3.org/2000/svg" xmlns:xlink="http://www.w3.org/1999/xlink" version="1.1"><rect x="0" y="0" width="960" height="540" fill="#101010"></rect><g transform="translate(995.5616621848101 -63.84599260236814)"><path d="M147.3 -204C212.5 -187.3 301.8 -183 320.2 -145.4C338.6 -107.9 286.1 -37.2 282.4 45.9C278.7 128.9 323.7 224.2 313.3 315.8C302.9 407.3 237 495.1 161.4 490C85.8 484.9 0.5 386.8 -74.4 329.9C-149.2 272.9 -213.7 256.9 -276.4 219.8C-339.2 182.8 -400.2 124.5 -394.9 65.6C-389.7 6.7 -318.1 -52.9 -287.7 -136.3C-257.3 -219.7 -268.2 -326.9 -227.1 -354.7C-186 -382.4 -93 -330.7 -26 -290.3C41.1 -249.9 82.1 -220.8 147.3 -204" fill="#6c57f5"></path></g></svg>