<svg id="visual" viewBox="0 0 960 540" width="960" height="540" xmlns="http://www.w3.org/2000/svg" xmlns:xlink="http://www.w3.org/1999/xlink" version="1.1"><rect width="960" height="540" fill="#101010"></rect><g><g transform="translate(634 356)"><path d="M49.8 -63.3C59.7 -51 59.5 -30.8 62.3 -11.5C65 7.7 70.7 25.9 68.1 47.6C65.4 69.3 54.5 94.5 34.9 106C15.4 117.4 -12.9 115.1 -31.5 101.7C-50.1 88.4 -59.1 63.8 -59.1 43.8C-59.2 23.8 -50.2 8.3 -45.1 -5.8C-40 -19.8 -38.8 -32.3 -32 -45.2C-25.1 -58 -12.5 -71.2 3.7 -75.6C19.9 -80 39.9 -75.7 49.8 -63.3Z" fill="#715DF2"></path></g><g transform="translate(418 182)"><path d="M43.2 -50.9C53 -43.3 55.8 -26.8 53.2 -13.5C50.6 -0.3 42.5 9.8 35.8 20.1C29.2 30.5 24 41.1 13.2 51.7C2.3 62.4 -14.1 73.2 -24.9 69C-35.7 64.8 -40.8 45.7 -48.8 29.4C-56.7 13.1 -67.5 -0.3 -69.1 -15.8C-70.7 -31.3 -63.1 -48.7 -50.1 -55.8C-37 -62.9 -18.5 -59.6 -0.9 -58.5C16.7 -57.4 33.4 -58.6 43.2 -50.9Z" fill="#715DF2"></path></g><g transform="translate(173 352)"><path d="M50.5 -60.2C67.2 -46.1 83.9 -31.9 87.2 -15C90.6 1.8 80.7 21.4 66.8 32C52.9 42.7 34.9 44.6 15.8 57.7C-3.3 70.9 -23.4 95.3 -36.1 93.3C-48.8 91.2 -53.9 62.7 -60.5 40.3C-67.1 17.9 -75.1 1.6 -69.1 -8.7C-63.1 -19 -43.2 -23.3 -29.3 -38C-15.5 -52.7 -7.7 -77.7 4.6 -83.1C16.9 -88.6 33.7 -74.4 50.5 -60.2Z" fill="#715DF2"></path></g></g></svg>