<svg id="visual" viewBox="0 0 960 540" width="960" height="540" xmlns="http://www.w3.org/2000/svg" xmlns:xlink="http://www.w3.org/1999/xlink" version="1.1"><rect width="960" height="540" fill="#101010"></rect><g><g transform="translate(69 333)"><path d="M37.8 -46.5C49.1 -35.6 58.5 -23.8 70 -5.5C81.4 12.9 94.8 37.7 86.7 48.6C78.7 59.5 49 56.4 23 68.1C-3.1 79.7 -25.7 106 -48 108.2C-70.4 110.4 -92.6 88.3 -107 62.3C-121.4 36.3 -127.9 6.3 -115.7 -13.1C-103.6 -32.4 -72.7 -41.1 -50.3 -50.1C-27.9 -59 -13.9 -68.2 -0.3 -67.8C13.2 -67.4 26.5 -57.4 37.8 -46.5Z" fill="#715DF2"></path></g><g transform="translate(706 409)"><path d="M39.5 -54.2C47.8 -40.2 48.7 -24.5 45.7 -12.4C42.7 -0.3 35.8 8.2 31.5 20.7C27.3 33.2 25.7 49.8 17.2 57.2C8.7 64.6 -6.8 63 -24.2 59.6C-41.6 56.3 -60.8 51.3 -64 39.8C-67.3 28.4 -54.4 10.5 -45.1 -1.9C-35.7 -14.4 -29.8 -21.4 -22.9 -35.7C-15.9 -50 -8 -71.5 3.8 -76.1C15.6 -80.7 31.3 -68.3 39.5 -54.2Z" fill="#715DF2"></path></g><g transform="translate(929 77)"><path d="M41.4 -39C56.9 -36.3 75.1 -26.4 82.2 -10.8C89.3 4.7 85.4 25.9 72.9 37C60.4 48 39.3 49 20.1 56.7C0.8 64.4 -16.5 78.7 -31.4 77.3C-46.4 75.8 -58.8 58.5 -66.4 40.6C-74 22.8 -76.8 4.4 -72.3 -11.3C-67.8 -27.1 -56.2 -40.1 -43 -43.2C-29.7 -46.3 -14.9 -39.4 -1 -38.2C12.9 -37.1 25.8 -41.6 41.4 -39Z" fill="#715DF2"></path></g></g></svg>