<svg id="visual" viewBox="0 0 960 540" width="960" height="540" xmlns="http://www.w3.org/2000/svg" xmlns:xlink="http://www.w3.org/1999/xlink" version="1.1"><rect x="0" y="0" width="960" height="540" fill="#101010"></rect><path d="M0 405L40 411.2C80 417.3 160 429.7 240 417.5C320 405.3 400 368.7 480 372.8C560 377 640 422 720 427.5C800 433 880 399 920 382L960 365L960 541L920 541C880 541 800 541 720 541C640 541 560 541 480 541C400 541 320 541 240 541C160 541 80 541 40 541L0 541Z" fill="#715df2"></path><path d="M0 451L40 445.8C80 440.7 160 430.3 240 429C320 427.7 400 435.3 480 434.2C560 433 640 423 720 428.8C800 434.7 880 456.3 920 467.2L960 478L960 541L920 541C880 541 800 541 720 541C640 541 560 541 480 541C400 541 320 541 240 541C160 541 80 541 40 541L0 541Z" fill="#6c50f6"></path><path d="M0 468L40 464.7C80 461.3 160 454.7 240 449.2C320 443.7 400 439.3 480 436.2C560 433 640 431 720 431.2C800 431.3 880 433.7 920 434.8L960 436L960 541L920 541C880 541 800 541 720 541C640 541 560 541 480 541C400 541 320 541 240 541C160 541 80 541 40 541L0 541Z" fill="#6940fa"></path><path d="M0 435L40 445.8C80 456.7 160 478.3 240 484.5C320 490.7 400 481.3 480 471.7C560 462 640 452 720 456.8C800 461.7 880 481.3 920 491.2L960 501L960 541L920 541C880 541 800 541 720 541C640 541 560 541 480 541C400 541 320 541 240 541C160 541 80 541 40 541L0 541Z" fill="#672bfd"></path><path d="M0 517L40 515.7C80 514.3 160 511.7 240 505.5C320 499.3 400 489.7 480 483.2C560 476.7 640 473.3 720 478.7C800 484 880 498 920 505L960 512L960 541L920 541C880 541 800 541 720 541C640 541 560 541 480 541C400 541 320 541 240 541C160 541 80 541 40 541L0 541Z" fill="#6600ff"></path></svg>