<svg id="visual" viewBox="0 0 900 600" width="900" height="600" xmlns="http://www.w3.org/2000/svg" xmlns:xlink="http://www.w3.org/1999/xlink" version="1.1"><rect x="0" y="0" width="900" height="600" fill="#121212"></rect><path d="M673 600L664.8 585.7C656.7 571.3 640.3 542.7 645.5 514.2C650.7 485.7 677.3 457.3 691.7 428.8C706 400.3 708 371.7 689.2 343C670.3 314.3 630.7 285.7 637 257C643.3 228.3 695.7 199.7 695.3 171.2C695 142.7 642 114.3 629.2 85.8C616.3 57.3 643.7 28.7 657.3 14.3L671 0L900 0L900 14.3C900 28.7 900 57.3 900 85.8C900 114.3 900 142.7 900 171.2C900 199.7 900 228.3 900 257C900 285.7 900 314.3 900 343C900 371.7 900 400.3 900 428.8C900 457.3 900 485.7 900 514.2C900 542.7 900 571.3 900 585.7L900 600Z" fill="#8673ff" stroke-linecap="round" stroke-linejoin="miter"></path></svg>